<svg width="137" height="115" viewBox="0 0 137 115" fill="none" xmlns="http://www.w3.org/2000/svg">
<path d="M67 104C95.7188 104 119 80.7188 119 52C119 23.2812 95.7188 0 67 0C38.2812 0 15 23.2812 15 52C15 80.7188 38.2812 104 67 104Z" fill="#0088CC"/>
<path d="M68.1064 34.92V69H61.5304V54.456H46.0744V69H39.4504V34.92H46.0744V48.696H61.5304V34.92H68.1064ZM95.5201 43.848C95.2961 43.624 94.8801 43.32 94.2721 42.936C93.6961 42.552 92.9761 42.184 92.1121 41.832C91.2801 41.48 90.3681 41.176 89.3761 40.92C88.3841 40.632 87.3761 40.488 86.3521 40.488C84.5601 40.488 83.2001 40.824 82.2721 41.496C81.3761 42.168 80.9281 43.112 80.9281 44.328C80.9281 45.256 81.2161 45.992 81.7921 46.536C82.3681 47.08 83.2321 47.544 84.3841 47.928C85.5361 48.312 86.9761 48.728 88.7041 49.176C90.9441 49.72 92.8801 50.392 94.5121 51.192C96.1761 51.96 97.4401 52.984 98.3041 54.264C99.2001 55.512 99.6481 57.176 99.6481 59.256C99.6481 61.08 99.3121 62.648 98.6401 63.96C97.9681 65.24 97.0401 66.28 95.8561 67.08C94.6721 67.88 93.3281 68.472 91.8241 68.856C90.3201 69.208 88.7201 69.384 87.0241 69.384C85.3281 69.384 83.6321 69.208 81.9361 68.856C80.2401 68.504 78.6081 68.008 77.0401 67.368C75.4721 66.696 74.0321 65.896 72.7201 64.968L75.6481 59.256C75.9361 59.544 76.4481 59.928 77.1841 60.408C77.9201 60.856 78.8161 61.32 79.8721 61.8C80.9281 62.248 82.0801 62.632 83.3281 62.952C84.5761 63.272 85.8401 63.432 87.1201 63.432C88.9121 63.432 90.2721 63.128 91.2001 62.52C92.1281 61.912 92.5921 61.048 92.5921 59.928C92.5921 58.904 92.2241 58.104 91.4881 57.528C90.7521 56.952 89.7281 56.456 88.4161 56.04C87.1041 55.592 85.5521 55.112 83.7601 54.6C81.6161 53.992 79.8241 53.32 78.3841 52.584C76.9441 51.816 75.8721 50.856 75.1681 49.704C74.4641 48.552 74.1121 47.112 74.1121 45.384C74.1121 43.048 74.6561 41.096 75.7441 39.528C76.8641 37.928 78.3681 36.728 80.2561 35.928C82.1441 35.096 84.2401 34.68 86.5441 34.68C88.1441 34.68 89.6481 34.856 91.0561 35.208C92.4961 35.56 93.8401 36.024 95.0881 36.6C96.3361 37.176 97.4561 37.8 98.4481 38.472L95.5201 43.848Z" fill="white"/>
</svg>
