<svg xmlns="http://www.w3.org/2000/svg" viewBox="0 0 2234.85 2320.33"><defs><style>.cls-1{fill:#4a72b2;}.cls-2{fill:#76aadb;}.cls-3{fill:#40486c;}.cls-4{fill:#d48000;}.cls-5{fill:#feee00;}.cls-6{font-size:1233.07px;fill:#72a0cc;stroke:#cb7d19;stroke-miterlimit:10;stroke-width:40px;font-family:MVBoli, MV Boli;}</style></defs><title>LOGOH</title><g id="Isolation_Mode" data-name="Isolation Mode"><polygon class="cls-1" points="1024.38 142.02 1024.38 1650 0 1192.99 0 40.53 1024.38 142.02"/><polygon class="cls-2" points="2048.74 40.53 2048.75 1183.99 1024.38 1650 1024.38 142.02 2048.74 40.53"/><polygon class="cls-3" points="2048.75 40.53 1024.38 142.5 0.01 40.53 1021.75 0 2048.75 40.53"/><polygon class="cls-4" points="1024.37 1205 816.92 1131.66 816.92 1554.14 535.27 1431.79 535.27 280.14 816.92 332.26 816.92 818.14 1024.37 884.21 1024.37 1205"/><polygon class="cls-5" points="1024.37 1205 1231.83 1131.66 1231.83 1554.14 1513.47 1431.79 1513.47 279.14 1231.83 332.26 1231.83 818.14 1024.37 884.21 1024.37 1205"/><text class="cls-6" transform="translate(256.37 1933.06) scale(1.63 1)">M</text></g></svg>